<?xml version="1.0" standalone="no"?>
<!DOCTYPE svg PUBLIC "-//W3C//DTD SVG 20010904//EN"
 "http://www.w3.org/TR/2001/REC-SVG-20010904/DTD/svg10.dtd">
<svg version="1.0" xmlns="http://www.w3.org/2000/svg"
 width="357.000000pt" height="100.000000pt" viewBox="0 0 357.000000 100.000000"
 preserveAspectRatio="xMidYMid meet">

<g transform="translate(0.000000,100.000000) scale(0.100000,-0.100000)"
fill="#000000" stroke="none">
<path d="M174 986 c-60 -19 -107 -59 -140 -118 l-29 -53 -3 -293 c-4 -346 1
-373 74 -446 71 -71 98 -76 424 -76 300 0 339 5 402 54 19 14 48 50 64 78 l29
53 3 285 c2 186 0 303 -8 336 -14 68 -57 124 -122 160 l-53 29 -300 2 c-226 2
-310 -1 -341 -11z m164 -233 l48 47 24 -25 24 -25 -47 -48 -47 -47 45 -46 46
-45 -24 -22 -23 -22 -44 45 -44 45 -48 -47 -48 -47 -25 24 -25 24 47 48 47 48
-47 48 -47 48 22 22 22 22 48 -47 48 -47 48 47z m420 0 l48 47 22 -22 22 -22
-47 -48 -47 -48 47 -48 47 -48 -25 -24 -26 -24 -47 47 -47 47 -47 -47 -48 -47
-22 22 -23 22 48 47 47 48 -47 47 -47 48 24 25 24 25 48 -47 48 -47 48 47z
m72 -489 l0 -135 -32 3 -33 3 -3 98 -3 97 -64 0 -65 0 0 -101 0 -100 -32 3
-33 3 -3 98 -3 98 -197 2 -197 3 -3 33 -3 32 335 0 336 0 0 -136z"/>
<path d="M2812 783 c-44 -18 -31 -83 16 -83 52 0 70 46 30 74 -24 17 -26 17
-46 9z"/>
<path d="M1270 500 l0 -260 40 0 40 0 0 110 0 110 110 0 110 0 0 30 0 30 -110
0 -110 0 0 90 0 90 125 0 125 0 0 30 0 30 -165 0 -165 0 0 -260z"/>
<path d="M1670 500 l0 -260 135 0 c114 0 142 3 174 19 94 48 92 192 -4 238
l-35 17 29 14 c39 19 65 73 56 119 -17 92 -59 113 -229 113 l-126 0 0 -260z
m261 171 c26 -32 24 -77 -5 -106 -27 -27 -71 -38 -136 -33 l-45 3 -3 69 c-4
100 -6 99 89 94 70 -3 83 -6 100 -27z m-3 -218 c54 -40 55 -111 2 -138 -22
-11 -53 -15 -108 -13 l-77 3 -3 74 c-2 41 0 81 3 89 8 23 148 11 183 -15z"/>
<path d="M2420 500 l0 -260 35 0 35 0 0 68 c0 57 4 72 21 88 23 21 15 29 106
-93 45 -60 49 -63 90 -63 24 0 43 3 43 6 0 3 -36 53 -81 110 l-81 105 79 82
78 82 -42 3 c-42 3 -45 1 -128 -85 l-84 -88 -1 153 0 152 -35 0 -35 0 0 -260z"/>
<path d="M2950 500 l0 -260 35 0 35 0 0 260 0 260 -35 0 -35 0 0 -260z"/>
<path d="M3100 500 l0 -260 35 0 35 0 0 260 0 260 -35 0 -35 0 0 -260z"/>
<path d="M3355 631 c-43 -11 -72 -28 -89 -53 -23 -32 -20 -45 12 -51 20 -4 34
1 52 19 32 30 80 40 111 24 31 -17 39 -29 39 -62 0 -30 -7 -33 -90 -43 -137
-18 -192 -84 -145 -175 33 -63 147 -82 203 -35 36 30 42 31 42 5 0 -16 7 -20
35 -20 l35 0 0 145 c0 165 -10 204 -59 230 -37 19 -106 27 -146 16z m125 -246
c0 -65 -31 -95 -99 -95 -43 0 -53 4 -67 25 -32 49 4 82 111 103 28 5 51 10 53
11 1 0 2 -19 2 -44z"/>
<path d="M2790 435 l0 -195 40 0 40 0 0 195 0 195 -40 0 -40 0 0 -195z"/>
<path d="M2110 460 l0 -30 115 0 115 0 0 30 0 30 -115 0 -115 0 0 -30z"/>
</g>
</svg>
